<svg xmlns="http://www.w3.org/2000/svg" width="128" height="128" viewBox="0 0 128 128" fill="none">
  <!-- Transparent background -->
  <path d="M64 10c18.6 0 35.4 8.3 46.7 21.5l-19.3 9.2c-7.2-8-17.7-13-29.4-13-11.8 0-22.5 5.1-29.7 13.3L13.1 31.7C24.5 18.4 42.7 10 64 10Z" fill="#0B3A3F"/>
  <path d="M10 64c0-10.5 2.9-20.3 8-28.6l18.9 9.4c-3.2 5.6-5 12.1-5 19.2 0 8.4 2.5 16.3 6.9 22.9L18.7 97.4C13.1 88 10 76.4 10 64Z" fill="#0B3A3F"/>
  <path d="M118 64c0 21.4-12.7 39.9-31 48.5l-11.1-17.4c12.1-6.2 20.4-18.8 20.4-33.9 0-7.3-1.9-14.2-5.3-20.2l18.8-9.5C115 40 118 51 118 64Z" fill="#0B3A3F"/>

  <!-- Warm accent -->
  <path d="M64 118c-16.5 0-31.4-6.5-42.4-17l15.5-12.7c7.3 6.7 17 10.7 27.6 10.7 6.9 0 13.4-1.7 19.1-4.8l10.4 16.7C85.6 115.6 75.1 118 64 118Z" fill="#F59E0B"/>
  <path d="M40.4 86.9c-4.3-6.6-6.8-14.4-6.8-22.9 0-7.2 1.8-13.8 5.1-19.4l18.1 10.1c-1.6 2.9-2.5 6.2-2.5 9.7 0 4.7 1.6 9.1 4.2 12.6L40.4 86.9Z" fill="#F97316"/>

  <!-- Nodes -->
  <circle cx="64" cy="22" r="10" fill="#0B3A3F"/>
  <circle cx="28" cy="48" r="8" fill="#0B3A3F"/>
  <circle cx="92" cy="44" r="8" fill="#0B3A3F"/>
  <circle cx="90" cy="94" r="10" fill="#0B3A3F"/>
</svg>
